HIERARCHY
ROOT Hips
{
	OFFSET -0.001795 -0.223333 0.028219
	CHANNELS 6 Xposition Yposition Zposition Zrotation Yrotation Xrotation 
	JOINT LeftUpLeg
	{
		OFFSET 0.069520 -0.091406 -0.006815
		CHANNELS 3 Zrotation Yrotation Xrotation
		JOINT LeftLeg
		{
			OFFSET 0.034277 -0.375199 -0.004496
			CHANNELS 3 Zrotation Yrotation Xrotation
			JOINT LeftFoot
			{
				OFFSET -0.013596 -0.397961 -0.043693
				CHANNELS 3 Zrotation Yrotation Xrotation
				JOINT LeftToe
				{
					OFFSET 0.026358 -0.055791 0.119288
					CHANNELS 3 Zrotation Yrotation Xrotation
					End Site
					{
						OFFSET 0.000000 0.000000 0.000000
					}
				}
			}
		}
	}
	JOINT RightUpLeg
	{
		OFFSET -0.067670 -0.090522 -0.004320
		CHANNELS 3 Zrotation Yrotation Xrotation
		JOINT RightLeg
		{
			OFFSET -0.038290 -0.382569 -0.008850
			CHANNELS 3 Zrotation Yrotation Xrotation
			JOINT RightFoot
			{
				OFFSET 0.015774 -0.398415 -0.042312
				CHANNELS 3 Zrotation Yrotation Xrotation
				JOINT RightToe
				{
					OFFSET -0.025372 -0.048144 0.123348
					CHANNELS 3 Zrotation Yrotation Xrotation
					End Site
					{
						OFFSET 0.000000 0.000000 0.000000
					}
				}
			}
		}
	}
	JOINT Spine
	{
		OFFSET -0.002533 0.108963 -0.026696
		CHANNELS 3 Zrotation Yrotation Xrotation
		JOINT Spine1
		{
			OFFSET 0.005487 0.135180 0.001092
			CHANNELS 3 Zrotation Yrotation Xrotation
			JOINT Spine2
			{
				OFFSET 0.001457 0.052922 0.025425
				CHANNELS 3 Zrotation Yrotation Xrotation
				JOINT Neck
				{
					OFFSET -0.002778 0.213870 -0.042857
					CHANNELS 3 Zrotation Yrotation Xrotation
					JOINT Head
					{
						OFFSET 0.005152 0.064970 0.051349
						CHANNELS 3 Zrotation Yrotation Xrotation
						End Site
						{
							OFFSET 0.000000 0.000000 0.000000
						}
					}
				}
				JOINT LeftShoulder
				{
					OFFSET 0.078845 0.121749 -0.034090
					CHANNELS 3 Zrotation Yrotation Xrotation
					JOINT LeftArm
					{
						OFFSET 0.090977 0.030469 -0.008868
						CHANNELS 3 Zrotation Yrotation Xrotation
						JOINT LeftForeArm
						{
							OFFSET 0.259612 -0.012772 -0.027456
							CHANNELS 3 Zrotation Yrotation Xrotation
							JOINT LeftHand
							{
								OFFSET 0.249234 0.008986 -0.001171
								CHANNELS 3 Zrotation Yrotation Xrotation
								End Site
								{
									OFFSET 0.000000 0.000000 0.000000
								}
							}
						}
					}
				}
				JOINT RightShoulder
				{
					OFFSET -0.081759 0.118833 -0.038615
					CHANNELS 3 Zrotation Yrotation Xrotation
					JOINT RightArm
					{
						OFFSET -0.096012 0.032551 -0.009143
						CHANNELS 3 Zrotation Yrotation Xrotation
						JOINT RightForeArm
						{
							OFFSET -0.253742 -0.013329 -0.021401
							CHANNELS 3 Zrotation Yrotation Xrotation
							JOINT RightHand
							{
								OFFSET -0.255298 0.007772 -0.005559
								CHANNELS 3 Zrotation Yrotation Xrotation
								End Site
								{
									OFFSET 0.000000 0.000000 0.000000
								}
							}
						}
					}
				}
			}
		}
	}
}
MOTION
Frames: 12
Frame Time: 0.050000
0.000000 0.959272 0.000000 -2.877782 -5.247837 0.359504 0.188509 0.034078 0.371335 1.852728 -0.201154 -0.369792 -0.948055 0.485492 6.235399 0.000000 0.000000 0.000000 1.959386 0.124660 -1.637755 -1.603011 0.355409 3.494261 2.754488 2.430675 6.729568 0.000000 0.000000 0.000000 3.227371 -0.079297 0.737210 -1.966085 0.919968 -2.544039 0.319653 1.965515 6.734053 4.600689 -2.127235 -13.066015 0.000000 0.000000 0.000000 -16.898624 0.828759 -1.793875 -53.521372 -7.187457 -3.443347 -16.797694 -26.418071 5.077747 0.000000 0.000000 0.000000 17.515606 -4.534023 -4.129003 58.919983 3.248687 -4.364931 10.084623 24.221195 2.776770 0.000000 0.000000 0.000000 
0.000050 0.958147 0.001629 -3.165227 -5.669938 0.918849 0.717772 0.019987 0.262308 1.568042 -0.151505 -0.756396 -0.442835 0.946568 4.921388 0.000000 0.000000 0.000000 1.934524 0.187023 -2.217810 -1.233956 0.315994 3.644049 2.673411 2.947115 5.540156 0.000000 0.000000 0.000000 3.210212 -0.038915 0.075383 -1.836756 0.864345 -1.716072 0.471069 2.234868 6.118680 4.707058 -2.083857 -13.826871 0.000000 0.000000 0.000000 -17.635988 1.067970 -2.020970 -52.838340 -7.732740 -3.109604 -16.602633 -27.020748 5.139564 0.000000 0.000000 0.000000 17.031714 -4.565831 -4.073655 59.385027 2.476845 -4.720942 11.093110 25.935225 3.206316 0.000000 0.000000 0.000000 
0.000088 0.957684 0.003111 -2.827804 -5.512298 1.002878 0.355834 0.023896 0.282432 1.923714 -0.204248 -0.479663 -0.941078 -0.252328 4.295909 0.000000 0.000000 0.000000 1.938586 0.212157 -2.435717 -1.422103 0.358622 3.960242 2.240497 2.362031 4.917674 0.000000 0.000000 0.000000 3.268629 -0.053272 0.252842 -1.426811 0.670265 -3.221555 -0.092250 2.768836 6.927548 4.390465 -1.845349 -13.725476 0.000000 0.000000 0.000000 -17.293312 0.600196 -1.866310 -52.976923 -7.304573 -3.361927 -16.394311 -26.801778 5.008373 0.000000 0.000000 0.000000 17.987607 -3.957654 -3.737529 58.493475 2.327289 -4.800984 9.998501 26.445010 3.098615 0.000000 0.000000 0.000000 
-0.000030 0.957981 0.004705 -2.964221 -5.785538 0.827996 0.704337 0.058859 0.692639 1.503562 -0.138372 -0.895967 -1.097205 -0.521282 4.425442 0.000000 0.000000 0.000000 1.773438 0.206133 -2.367600 -1.255777 0.342651 4.062693 2.619773 3.253966 4.853816 0.000000 0.000000 0.000000 2.992830 -0.053465 0.331249 -1.165743 0.552673 -2.384091 0.297519 2.758174 6.170504 4.204163 -1.734753 -13.663412 0.000000 0.000000 0.000000 -16.561066 1.654591 -2.309334 -53.720834 -7.443173 -3.267017 -16.425027 -27.167602 5.093232 0.000000 0.000000 0.000000 17.288968 -3.857356 -3.644758 58.617057 2.731047 -4.535378 9.906915 26.696659 3.084084 0.000000 0.000000 0.000000 
-0.000199 0.958450 0.006422 -2.831933 -5.878394 0.394557 0.379252 0.091475 1.000249 1.639859 -0.170125 -0.553626 -0.774879 0.094356 4.389210 0.000000 0.000000 0.000000 1.588927 0.142235 -1.763020 -1.414051 0.348107 3.796749 2.541845 3.065891 4.852446 0.000000 0.000000 0.000000 3.138540 -0.087930 0.876974 -1.380221 0.650107 -2.288354 0.372722 3.253160 5.976949 3.898531 -1.513217 -13.475799 0.000000 0.000000 0.000000 -16.106569 1.250880 -2.150904 -53.597767 -7.383796 -3.259459 -16.308688 -27.274091 5.042157 0.000000 0.000000 0.000000 17.077842 -3.992656 -3.592326 58.402372 2.473590 -4.629775 10.191817 27.554500 3.291464 0.000000 0.000000 0.000000 
-0.000493 0.958563 0.008249 -2.859758 -5.679439 0.227347 0.562986 0.115624 1.288306 1.406399 -0.147485 -0.454537 -0.661637 0.174083 3.975334 0.000000 0.000000 0.000000 1.487280 0.090769 -1.269383 -1.540125 0.351120 3.568091 2.685409 3.371008 4.914419 0.000000 0.000000 0.000000 3.117068 -0.110062 1.230085 -1.112036 0.529029 -2.643127 0.298268 3.691281 6.290324 3.759225 -1.336411 -13.823320 0.000000 0.000000 0.000000 -15.867157 1.595959 -2.396533 -53.343713 -7.205581 -3.348362 -15.514532 -27.346161 4.823457 0.000000 0.000000 0.000000 16.710279 -3.782197 -3.308899 58.376465 2.422457 -4.687518 9.773545 27.848840 3.280543 0.000000 0.000000 0.000000 
-0.000804 0.958673 0.009748 -2.741338 -5.475195 0.192446 0.447119 0.131406 1.445564 1.609077 -0.159546 -0.681229 -0.743537 0.183693 4.400737 0.000000 0.000000 0.000000 1.404351 0.079150 -1.141387 -1.732640 0.377496 3.590444 2.540927 3.317464 4.504231 0.000000 0.000000 0.000000 3.149258 -0.124246 1.434436 -1.189682 0.565820 -2.787940 0.119009 4.036610 6.546220 4.159994 -1.480259 -14.399958 0.000000 0.000000 0.000000 -15.631766 1.740193 -2.527592 -52.859586 -6.981954 -3.430799 -14.236496 -27.334887 4.471537 0.000000 0.000000 0.000000 16.558578 -3.965145 -3.275675 58.274956 2.090343 -4.864986 9.682149 28.126261 3.339973 0.000000 0.000000 0.000000 
-0.001053 0.958852 0.010897 -2.691835 -4.923024 0.167876 0.502997 0.105031 1.178899 1.591818 -0.181613 -0.131767 -0.694197 0.066482 3.767099 0.000000 0.000000 0.000000 1.471862 0.071777 -1.071105 -1.988609 0.412765 3.610510 2.192046 2.845986 4.030548 0.000000 0.000000 0.000000 3.075063 -0.141038 1.703797 -0.964918 0.470056 -3.013838 -0.345331 4.411014 6.781592 4.158237 -1.384978 -14.591389 0.000000 0.000000 0.000000 -15.457418 2.011822 -2.775836 -51.805094 -6.437338 -3.604640 -12.518290 -27.521858 4.026145 0.000000 0.000000 0.000000 16.758455 -4.435131 -3.381855 58.059002 1.702461 -5.061787 7.810776 28.171703 2.967077 0.000000 0.000000 0.000000 
-0.001284 0.958962 0.011765 -2.666139 -4.572865 0.459327 0.388730 0.063080 0.715240 1.849710 -0.219131 0.052484 -0.593508 0.213965 3.593540 0.000000 0.000000 0.000000 1.354798 0.137430 -1.647313 -1.919568 0.432492 4.071719 2.039482 2.816369 3.546638 0.000000 0.000000 0.000000 3.268456 -0.140939 1.589279 -1.280191 0.614334 -3.166919 -0.490718 4.760438 6.952177 4.195255 -1.327820 -14.789808 0.000000 0.000000 0.000000 -14.653789 2.465098 -2.975557 -51.253233 -6.127943 -3.704406 -10.329185 -27.148745 3.400348 0.000000 0.000000 0.000000 16.506831 -5.449890 -3.759889 57.481110 0.936108 -5.382675 6.169222 28.283692 2.642248 0.000000 0.000000 0.000000 
-0.001498 0.959772 0.012753 -2.661733 -4.212826 0.753098 0.272179 0.015617 0.192036 1.841799 -0.239393 0.517959 -0.589706 0.112119 3.279553 0.000000 0.000000 0.000000 1.513373 0.176215 -2.017365 -1.924990 0.437441 4.141265 1.780039 2.213537 3.563768 0.000000 0.000000 0.000000 3.331312 -0.141380 1.523043 -1.168944 0.569333 -3.505601 -0.945830 5.340780 7.423619 4.446958 -1.481791 -14.221544 0.000000 0.000000 0.000000 -14.670129 3.308093 -3.523164 -49.391879 -5.665594 -3.766432 -7.914351 -26.467819 2.695345 0.000000 0.000000 0.000000 16.891226 -6.772990 -4.322629 55.927843 0.256994 -5.602631 2.855713 27.664840 1.886117 0.000000 0.000000 0.000000 
-0.001696 0.959995 0.014249 -2.544207 -3.612325 1.164231 0.233291 -0.042569 -0.440542 1.730315 -0.227132 0.581636 -0.667219 -0.051782 3.199048 0.000000 0.000000 0.000000 1.288951 0.254808 -2.696314 -1.800968 0.462909 4.844019 1.512671 1.999166 2.925734 0.000000 0.000000 0.000000 3.338073 -0.129512 1.275215 -1.274628 0.622155 -3.612103 -1.222112 5.688455 7.808173 5.162107 -1.900698 -14.048996 0.000000 0.000000 0.000000 -14.175148 4.445202 -4.089274 -47.880573 -5.188739 -3.843025 -4.872091 -25.876211 1.897150 0.000000 0.000000 0.000000 16.376440 -8.484864 -5.013288 54.903900 -0.408317 -5.808151 -0.669217 26.949926 1.117353 0.000000 0.000000 0.000000 
-0.001994 0.960409 0.016396 -2.624439 -3.288457 1.605794 0.431502 -0.090827 -0.963377 1.578692 -0.213080 0.694816 -0.927352 -0.726397 2.814914 0.000000 0.000000 0.000000 1.458716 0.343729 -3.499967 -1.809438 0.512093 5.640918 1.075210 1.087336 2.720698 0.000000 0.000000 0.000000 3.373636 -0.103841 0.821957 -1.166863 0.579018 -3.917823 -1.661244 6.285760 8.470699 6.038487 -2.572485 -12.956734 0.000000 0.000000 0.000000 -13.413634 5.768084 -4.677352 -45.956995 -4.489995 -3.969897 -0.606504 -25.250532 0.854578 0.000000 0.000000 0.000000 15.701962 -10.476348 -5.804164 52.081996 -1.004198 -5.810528 -4.315843 25.843811 0.381218 0.000000 0.000000 0.000000 
